<svg xmlns="http://www.w3.org/2000/svg" viewBox="0 0 16 16" role="img" aria-label="Golden sun icon">
  <path fill="#f4b400" d="M8 11.2A3.2 3.2 0 1 0 8 4.8a3.2 3.2 0 0 0 0 6.4z"/>
  <path fill="#d99800" d="M8 0.9a.7.7 0 0 1 .7.7v1.1a.7.7 0 1 1-1.4 0V1.6A.7.7 0 0 1 8 .9zm0 11.7a.7.7 0 0 1 .7.7v1.1a.7.7 0 1 1-1.4 0v-1.1a.7.7 0 0 1 .7-.7zM15.1 8a.7.7 0 0 1-.7.7h-1.1a.7.7 0 1 1 0-1.4h1.1a.7.7 0 0 1 .7.7zM3.4 8a.7.7 0 0 1-.7.7H1.6a.7.7 0 1 1 0-1.4h1.1a.7.7 0 0 1 .7.7zm9.1-5.5a.7.7 0 0 1 0 1l-.8.8a.7.7 0 0 1-1-1l.8-.8a.7.7 0 0 1 1 0zM4.3 11.7a.7.7 0 0 1 0 1l-.8.8a.7.7 0 1 1-1-1l.8-.8a.7.7 0 0 1 1 0zm9.2.8a.7.7 0 1 1-1 1l-.8-.8a.7.7 0 1 1 1-1l.8.8zM4.3 4.3a.7.7 0 0 1-1 0l-.8-.8a.7.7 0 1 1 1-1l.8.8a.7.7 0 0 1 0 1z"/>
</svg>
